<svg xmlns="http://www.w3.org/2000/svg" viewBox="0 0 1440 320"><path fill="#0099ff" fill-opacity="0.8" d="M0,96L24,106.7C48,117,96,139,144,176C192,213,240,267,288,256C336,245,384,171,432,122.7C480,75,528,53,576,69.3C624,85,672,139,720,170.7C768,203,816,213,864,186.7C912,160,960,96,1008,69.3C1056,43,1104,53,1152,74.7C1200,96,1248,128,1296,144C1344,160,1392,160,1416,160L1440,160L1440,320L1416,320C1392,320,1344,320,1296,320C1248,320,1200,320,1152,320C1104,320,1056,320,1008,320C960,320,912,320,864,320C816,320,768,320,720,320C672,320,624,320,576,320C528,320,480,320,432,320C384,320,336,320,288,320C240,320,192,320,144,320C96,320,48,320,24,320L0,320Z"></path></svg>